<svg width="13" height="16" viewBox="0 0 13 16" fill="none" xmlns="http://www.w3.org/2000/svg">
<path d="M11.7599 4.93163C11.7946 4.93166 11.8286 4.92177 11.8576 4.9032C11.8866 4.88463 11.9092 4.85821 11.9227 4.82726C11.9362 4.79631 11.9399 4.7622 11.9333 4.72921C11.9268 4.69623 11.9104 4.66584 11.886 4.64186L8.42721 1.2447C8.40263 1.22059 8.37117 1.20409 8.33686 1.19731C8.30254 1.19052 8.2669 1.19376 8.2345 1.2066C8.20209 1.21944 8.17437 1.24131 8.15487 1.26942C8.13537 1.29753 8.12497 1.33061 8.125 1.36444V4.42027C8.125 4.55589 8.18078 4.68596 8.28006 4.78186C8.37935 4.87775 8.514 4.93163 8.65441 4.93163H11.7599Z" fill="white"/>
<path d="M7.28642 5.74148C7.10521 5.5688 6.96123 5.36315 6.86279 5.1364C6.76435 4.90966 6.7134 4.66633 6.71289 4.42045V0.5H3.53642C2.78825 0.502136 2.07136 0.790159 1.54233 1.30116C1.01329 1.81216 0.715102 2.50461 0.712891 3.22727V12.7727C0.712891 13.496 1.01037 14.1897 1.53988 14.7012C2.0694 15.2127 2.78757 15.5 3.53642 15.5H9.88936C10.6382 15.5 11.3564 15.2127 11.8859 14.7012C12.4154 14.1897 12.7129 13.496 12.7129 12.7727V6.29545H8.65407C8.3995 6.2951 8.14753 6.24596 7.91276 6.15086C7.678 6.05577 7.4651 5.91662 7.28642 5.74148Z" fill="white"/>
</svg>
