<svg width="18" height="18" viewBox="0 0 18 18" fill="none" xmlns="http://www.w3.org/2000/svg">
<path d="M12.6944 9.03223C12.6944 10.9345 11.1523 12.4767 9.25 12.4767C7.34768 12.4767 5.80556 10.9345 5.80556 9.03223C5.80556 7.12991 7.34768 5.58778 9.25 5.58778C11.1523 5.58778 12.6944 7.12991 12.6944 9.03223ZM12.6944 9.03223V10.3239C12.6944 11.5128 13.6583 12.4767 14.8472 12.4767C16.0362 12.4767 17 11.5128 17 10.3239V9.03223C17 4.75202 13.5302 1.28223 9.25 1.28223C4.9698 1.28223 1.5 4.75202 1.5 9.03223C1.5 13.3125 4.9698 16.7822 9.25 16.7822H12.6944" stroke="#707070" stroke-width="1.3" stroke-linecap="round" stroke-linejoin="round"/>
</svg>
