<svg width="18" height="18" viewBox="0 0 18 18" fill="none" xmlns="http://www.w3.org/2000/svg">
<path d="M9.0309 0.286133C4.07896 0.286133 0.0634766 4.30092 0.0634766 9.25355C0.0634766 13.2157 2.63291 16.577 6.19597 17.7628C6.64411 17.8458 6.80868 17.5682 6.80868 17.3314C6.80868 17.1176 6.80031 16.4111 6.79651 15.6618C4.3017 16.2043 3.77528 14.6038 3.77528 14.6038C3.36737 13.5672 2.77962 13.2917 2.77962 13.2917C1.96604 12.7351 2.84095 12.7465 2.84095 12.7465C3.74145 12.8098 4.21562 13.6706 4.21562 13.6706C5.01541 15.0416 6.31342 14.6452 6.82514 14.4161C6.9056 13.8365 7.13804 13.4409 7.39446 13.217C5.40271 12.9902 3.30885 12.2213 3.30885 8.78523C3.30885 7.80623 3.65917 7.00623 4.23285 6.37825C4.13973 6.15235 3.83281 5.24031 4.3197 4.00511C4.3197 4.00511 5.07273 3.76409 6.78639 4.92432C7.50164 4.72557 8.2688 4.62598 9.0309 4.62261C9.79299 4.62598 10.5607 4.72557 11.2774 4.92432C12.989 3.76409 13.741 4.00511 13.741 4.00511C14.2291 5.24031 13.922 6.15235 13.8289 6.37825C14.4038 7.00623 14.7517 7.80616 14.7517 8.78523C14.7517 12.2294 12.6539 12.9879 10.6571 13.2098C10.9788 13.4881 11.2653 14.0339 11.2653 14.8705C11.2653 16.0703 11.2549 17.036 11.2549 17.3314C11.2549 17.57 11.4163 17.8496 11.871 17.7616C15.432 16.5745 17.9982 13.2143 17.9982 9.25355C17.9982 4.30092 13.9833 0.286133 9.0309 0.286133Z" fill="#707070"/>
<path d="M3.42182 13.0603C3.40213 13.1048 3.33194 13.1181 3.26815 13.0876C3.20309 13.0584 3.16652 12.9976 3.18762 12.9529C3.20696 12.907 3.27715 12.8942 3.34207 12.925C3.40726 12.9542 3.4444 13.0155 3.42182 13.0603ZM3.86293 13.4538C3.82017 13.4935 3.73655 13.4751 3.67979 13.4124C3.62114 13.3499 3.61016 13.2663 3.65356 13.226C3.69766 13.1864 3.77875 13.2049 3.83754 13.2675C3.8962 13.3308 3.90759 13.4138 3.86286 13.4539M4.16556 13.9574C4.11056 13.9956 4.02068 13.9598 3.96519 13.88C3.91026 13.8003 3.91026 13.7047 3.96639 13.6664C4.02209 13.628 4.11056 13.6625 4.16683 13.7416C4.22168 13.8227 4.22168 13.9184 4.16549 13.9575M4.67728 14.5406C4.62812 14.5948 4.52347 14.5803 4.44681 14.5063C4.36846 14.434 4.34659 14.3314 4.39589 14.2772C4.44561 14.2229 4.5509 14.2382 4.62812 14.3115C4.70598 14.3837 4.72968 14.4871 4.67728 14.5406ZM5.33866 14.7376C5.31707 14.8078 5.21622 14.8397 5.11466 14.8099C5.01325 14.7791 4.94686 14.6968 4.96732 14.6259C4.98842 14.5552 5.0897 14.5219 5.19203 14.5539C5.2933 14.5845 5.35976 14.6661 5.33866 14.7376ZM6.09148 14.821C6.09401 14.895 6.00785 14.9564 5.90123 14.9577C5.79398 14.96 5.70726 14.9002 5.70614 14.8274C5.70614 14.7528 5.79032 14.692 5.89751 14.6902C6.00413 14.6881 6.09148 14.7476 6.09148 14.821ZM6.83092 14.7927C6.84372 14.8649 6.7696 14.939 6.66375 14.9587C6.55966 14.9777 6.46331 14.9332 6.45002 14.8616C6.43708 14.7876 6.51261 14.7136 6.61649 14.6944C6.72255 14.676 6.81742 14.7193 6.83092 14.7927Z" fill="#707070"/>
</svg>
