<svg width="17" height="18" viewBox="0 0 17 18" fill="none" xmlns="http://www.w3.org/2000/svg">
<path d="M11.6221 5.61541C11.6254 5.61541 11.6298 5.61541 11.6342 5.61541C11.7487 5.61541 11.855 5.65214 11.9421 5.71545L11.9404 5.71432C12.004 5.7714 12.0467 5.85166 12.0571 5.9421V5.94379C12.0681 6.01275 12.0741 6.09188 12.0741 6.1727C12.0741 6.20944 12.073 6.24562 12.0703 6.28179V6.2767C11.947 7.61569 11.4123 10.8628 11.1405 12.3618C11.0255 12.9965 10.7992 13.209 10.5801 13.2294C10.104 13.2752 9.74239 12.9049 9.28109 12.5929C8.559 12.104 8.15084 11.8 7.45012 11.3235C6.63982 10.7735 7.16523 10.47 7.62653 9.97602C7.74761 9.84602 9.84648 7.87625 9.88757 7.69765C9.88976 7.68691 9.89086 7.67504 9.89086 7.6626C9.89086 7.61852 9.87497 7.57839 9.84922 7.54786C9.82073 7.52865 9.78512 7.51791 9.74787 7.51791C9.72321 7.51791 9.69966 7.523 9.67774 7.53147L9.67884 7.53091C9.60652 7.54786 8.45308 8.33426 6.21852 9.8901C5.97472 10.0885 5.66682 10.214 5.33152 10.2287H5.32823C4.85323 10.1693 4.42206 10.0602 4.01281 9.9048L4.05335 9.91836C3.53945 9.74541 3.13129 9.65441 3.16636 9.36163C3.18498 9.2094 3.38842 9.05359 3.77668 8.8942C6.1683 7.81917 7.76313 7.11058 8.56119 6.76844C9.44161 6.28631 10.4623 5.88953 11.5356 5.63236L11.6216 5.61484L11.6221 5.61541ZM8.22973 0.52002C3.68135 0.531324 -0.00195312 4.33803 -0.00195312 9.03211C-0.00195312 13.733 3.69176 17.5442 8.24891 17.5442C12.8061 17.5442 16.4998 13.7335 16.4998 9.03211C16.4998 4.33803 12.8165 0.531324 8.26918 0.52002H8.26808C8.2553 0.52002 8.24252 0.52002 8.22973 0.52002Z" fill="#707070"/>
</svg>
